<svg width="187" height="144" viewBox="0 0 187 144" fill="none" xmlns="http://www.w3.org/2000/svg">
<path d="M43.6606 87.3135C45.1782 88.6378 46.4329 90.2638 47.3532 92.0983C48.2734 93.9327 48.8407 95.9401 49.0235 98.0052C49.206 100.07 48.9999 102.153 48.4172 104.135C47.8345 106.116 46.8861 107.957 45.6265 109.553L28.5758 131.159C27.3163 132.755 25.7703 134.075 24.0259 135.043C22.2815 136.01 20.3729 136.607 18.4092 136.799C16.4454 136.991 14.4649 136.775 12.5808 136.162C10.6967 135.549 8.94576 134.552 7.4281 133.227" stroke="#380C00" stroke-width="3" stroke-miterlimit="10" stroke-linecap="round"/>
<path d="M7.42827 133.229C5.91032 131.904 4.65533 130.278 3.73503 128.443C2.81468 126.609 2.247 124.601 2.06441 122.536C1.88183 120.471 2.08788 118.388 2.67084 116.406C3.25381 114.424 4.20224 112.583 5.46199 110.987L12.5301 102.032M15.7489 111.692L11.8833 116.591C11.3235 117.3 10.902 118.119 10.643 118.999C10.3839 119.88 10.2924 120.806 10.3735 121.724C10.4547 122.641 10.7069 123.534 11.1159 124.349C11.5249 125.165 12.0826 125.887 12.7571 126.476C13.4317 127.065 14.2099 127.508 15.0473 127.78C15.8847 128.052 16.7649 128.149 17.6377 128.064C18.5105 127.978 19.3588 127.713 20.1341 127.283C20.9094 126.853 21.5966 126.266 22.1563 125.557L39.2055 103.949C39.7653 103.24 40.1865 102.422 40.4456 101.541C40.7046 100.66 40.7963 99.7347 40.7152 98.8166C40.6341 97.8986 40.3818 97.0067 39.9725 96.1913C39.5636 95.3759 39.0061 94.6534 38.3314 94.0646M38.4786 69.2348C39.7382 67.6387 42.369 64.8578 44.1134 63.8901C45.8577 62.9224 47.7661 62.3255 49.7301 62.1335C51.6938 61.9415 53.6743 62.1581 55.5583 62.7711C57.4427 63.384 59.1934 64.3812 60.711 65.7058" stroke="#380C00" stroke-width="3" stroke-miterlimit="10" stroke-linecap="round"/>
<path d="M24.479 111.621C22.9613 110.297 21.7065 108.671 20.7864 106.836C19.8662 105.002 19.2986 102.995 19.116 100.93C18.9335 98.8641 19.1395 96.7812 19.7223 94.7999C20.3051 92.8185 21.2533 90.977 22.5128 89.381L38.8807 68.5822M60.7114 65.7058C62.229 67.0304 63.4837 68.6563 64.4039 70.4908C65.3238 72.3253 65.8915 74.3325 66.074 76.3977C66.2568 78.4629 66.0507 80.5457 65.468 82.5272C64.8849 84.5087 63.9369 86.3501 62.6772 87.9461L55.6094 96.9032M52.3906 87.2425L56.2559 82.3419C57.386 80.9094 57.9289 79.0635 57.7648 77.2101C57.6011 75.3568 56.744 73.6478 55.3822 72.4589" stroke="#380C00" stroke-width="3" stroke-miterlimit="10" stroke-linecap="round"/>
<path d="M29.8078 104.868C29.1332 104.279 28.5755 103.557 28.1666 102.741C27.7576 101.926 27.5053 101.034 27.4242 100.116C27.343 99.198 27.4346 98.2724 27.6936 97.3919C27.9527 96.511 28.3742 95.6929 28.934 94.9833L45.9832 73.3777C46.543 72.6683 47.2301 72.0818 48.0054 71.6517C48.7807 71.2216 49.6288 70.9563 50.5018 70.871C51.3743 70.7856 52.2548 70.8819 53.092 71.1544C53.9296 71.4268 54.7076 71.87 55.3823 72.4587" stroke="#380C00" stroke-width="3" stroke-miterlimit="10" stroke-linecap="round"/>
<path d="M46.0238 46C45.9449 45.9997 45.6277 46.3532 45.3416 46.7807C44.1664 48.4906 43.423 48.7832 40.0897 48.9172C38.0522 48.9974 37.4199 49.0687 36.8503 49.3176C35.3159 49.9616 34.3156 51.3767 34.0557 53.2826C33.9095 54.376 34.0987 54.4507 36.9889 54.4628C39.1214 54.4568 39.3426 54.4282 40.181 54.0769C42.2062 53.2131 44.2531 50.6937 45.7666 47.1964C46.2288 46.1487 46.2607 46.001 46.0238 46Z" fill="#FFBF00"/>
<path d="M41.8397 55.0674C41.7548 55.067 41.3294 55.2673 40.892 55.5206C40.4666 55.7739 39.944 56.0375 39.7255 56.111C39.1668 56.3106 37.9181 56.1991 36.2942 55.799C33.7254 55.1824 32.3298 55.3786 31.1369 56.5323C30.3335 57.3156 30.429 57.7306 31.5546 58.3306C32.4503 58.8127 35.0815 58.9831 36.1865 58.6369C38.0566 58.0388 39.8674 57.0152 41.7289 55.4922C42.033 55.2489 42.0822 55.0684 41.8397 55.0674Z" fill="#FFBF00"/>
<path d="M37.9067 59.1971C37.8703 59.197 37.2749 59.439 36.5949 59.7232C35.4892 60.197 35.2707 60.2492 34.5552 60.2462C33.5486 60.242 32.1789 60.0131 31.3069 59.7012C29.8171 59.1635 29.4052 59.0554 28.823 59.053C27.7436 59.0485 26.6989 59.5012 26.1019 60.2216C25.4562 60.9843 25.6483 61.4954 26.7138 61.9782C28.5784 62.8151 31.3075 62.7521 33.6032 61.8262C35.4254 61.0896 37.9777 59.6439 37.9788 59.3463C37.9792 59.2612 37.9428 59.1973 37.9067 59.1971Z" fill="#FFBF00"/>
<path d="M35.8746 48.1331C35.644 48.1321 35.207 48.2472 33.9563 48.6353C31.7342 49.3277 29.5092 50.796 28.8253 52.0263C28.5201 52.5672 28.4952 52.7265 28.4787 53.8958C28.4713 55.8836 28.8814 56.4594 29.9989 56.0176C30.7155 55.7442 31.823 54.7495 32.1894 54.0707C32.4825 53.5298 32.6666 52.9459 33.0364 51.3635C33.3939 49.8236 33.8204 49.2938 35.1687 48.7042C36.0555 48.3145 36.2868 48.1348 35.8746 48.1331Z" fill="#FFBF00"/>
<path d="M33.0632 63.5351C33.0268 63.5349 32.5169 63.6816 31.9219 63.8598C31.0355 64.1326 30.6836 64.1736 29.7133 64.1802C28.4035 64.1747 27.6644 63.9803 25.509 63.0678C24.7824 62.7564 24.1162 62.5411 23.8736 62.54C22.9398 62.5361 21.347 63.5926 21.1622 64.3466C20.9653 65.1111 21.7625 65.9861 22.9982 66.3527C25.1667 66.9996 28.4078 66.2477 32.248 64.212C32.9164 63.864 33.3057 63.5361 33.0632 63.5351Z" fill="#FFBF00"/>
<path d="M30.0798 66.7119C30.007 66.7116 29.6668 66.8697 29.3144 67.0702C27.5034 68.0725 24.5677 68.2516 22.5938 67.4674C21.2737 66.9516 19.4548 66.859 18.7983 67.2709C17.5217 68.0947 17.2132 69.5179 18.144 70.3297C18.7605 70.8744 19.1725 70.9718 20.9675 70.9686C23.187 70.9566 24.0491 70.7157 26.2974 69.4813C28.2299 68.4051 30.5407 66.7138 30.0798 66.7119Z" fill="#FFBF00"/>
<path d="M27.2642 51.0735C25.9988 52.1525 25.451 52.6818 24.7443 53.5399C23.4529 55.0972 23.0243 56.1903 23.018 57.8592C23.0146 58.7628 23.0503 58.933 23.3635 59.5084C23.5684 59.8494 23.8701 60.2334 24.0396 60.3404C24.3542 60.533 24.3663 60.5331 24.8279 60.333C25.6297 59.9749 26.689 58.8738 27.2266 57.8449C27.5198 57.2721 27.4853 56.7617 27.0652 55.6225C26.3927 53.8338 26.5056 52.835 27.5298 51.3935C28.1395 50.535 28.0429 50.4177 27.2642 51.0735Z" fill="#FFBF00"/>
<path d="M28.9593 74.864C28.7949 74.8162 28.1693 74.9196 27.4775 75.0935C26.3904 75.3836 22.3703 76.7459 20.92 77.3291C18.9424 78.1223 18.448 78.3324 17.706 78.7418C15.579 79.8879 14.3544 81.7332 13.8336 84.5833C13.5647 86.0673 13.4601 87.6108 13.6249 87.5642C13.7072 87.5528 14.1039 87.0829 14.5008 86.5309C15.9068 84.5919 18.467 82.0332 22.0162 78.9955C24.1292 77.1893 25.0858 76.6157 27.2939 75.7763C27.9201 75.5315 28.6287 75.2516 28.8431 75.1346C29.1893 74.971 29.2058 74.9357 28.9593 74.864Z" fill="#3E7E2D"/>
<path d="M24.6002 72.4933C24.5397 72.4612 24.2242 72.5024 23.9085 72.5861C22.6096 72.9209 21.0821 72.7445 19.5564 72.0684C17.9703 71.3602 17.0851 71.3034 16.4402 71.8641C15.7466 72.4671 16.1062 73.6061 17.1233 74.0355C17.4987 74.1965 17.8988 74.2407 18.9418 74.2451C20.7368 74.2632 21.9385 73.9918 23.5181 73.2117C24.1742 72.8955 24.7089 72.6107 24.709 72.5895C24.7091 72.5682 24.6608 72.5255 24.6002 72.4933Z" fill="#FFBF00"/>
<path d="M22.7203 53.1807C22.2837 53.1788 19.7503 56.0066 18.969 57.3746C18.2731 58.5836 18.0397 59.3799 18.0229 60.6023C18.0173 62.0906 18.1972 62.6334 18.9467 63.285C19.261 63.5733 19.6239 63.7981 19.7695 63.7987C20.4123 63.8014 21.3126 63.061 22.069 61.8842C22.5935 61.0679 22.5836 60.4831 22.0418 59.4391C21.6084 58.5869 21.2491 57.3629 21.2516 56.7038C21.2545 55.9384 21.8297 54.5801 22.4998 53.775C22.8653 53.3301 22.9143 53.1815 22.7203 53.1807Z" fill="#FFBF00"/>
<path d="M18.0786 65.1741C17.9583 64.9078 17.6693 64.3432 17.4283 63.9276C17.1752 63.5013 16.802 62.7769 16.5975 62.3296C16.2245 61.5307 16.2127 61.4457 16.2179 60.0637C16.235 58.7456 16.2599 58.565 16.5778 57.9073C17.2747 56.4113 16.4475 57.0776 15.4585 58.8062C13.8104 61.6802 13.4841 64.5915 14.5796 66.7647C14.8805 67.3825 15.5574 67.9912 16.0542 68.0996C16.648 68.2296 17.7176 67.6388 18.1325 66.9602C18.3644 66.5785 18.331 65.7704 18.0786 65.1741Z" fill="#FFBF00"/>
<path d="M15.7931 69.7991C15.697 69.5542 15.2261 69.0101 14.658 68.4975C14.1261 68.0063 13.5221 67.3766 13.317 67.0993C12.9068 66.5129 12.4865 65.395 12.4885 64.8741C12.4892 64.6722 12.4292 64.5124 12.3686 64.5122C11.932 64.5104 11.7156 67.2202 12.0377 68.646C12.3836 70.1889 13.1915 71.436 14.0272 71.7477C14.33 71.8553 14.4634 71.8452 14.9371 71.6559C15.3865 71.4877 15.5568 71.3502 15.7401 70.9895C16.0211 70.4591 16.0215 70.3529 15.7931 69.7991Z" fill="#FFBF00"/>
<path d="M15.347 72.2849C15.1651 72.2842 14.3484 73.3757 14.2256 73.7685C14.1766 73.9171 14.066 74.2994 13.9556 74.6178C13.3541 76.5288 13.1786 78.0588 13.4657 79.1017C13.7528 80.1766 13.7407 80.1447 13.8863 80.1453C13.9591 80.1456 14.0088 79.8163 14.0107 79.3166C14.0158 77.956 14.3387 75.9588 14.7807 74.5149C14.9158 74.0797 15.0753 73.5807 15.1246 73.4002C15.1858 73.2303 15.284 72.9119 15.3576 72.7102C15.517 72.2537 15.529 72.2857 15.347 72.2849Z" fill="#FFBF00"/>
<path d="M13.396 81.5249C13.1227 80.0355 12.9672 79.4608 12.4746 78.2256C11.2489 75.1802 11.0691 74.6374 10.0163 70.7742C9.80108 69.9547 9.81674 65.7983 10.0514 64.6831C10.175 64.0671 10.188 63.8226 10.0913 63.7372C9.98254 63.6411 9.88515 63.7363 9.71405 64.0864C9.01759 65.4442 8.23875 69.3635 7.9587 72.881C7.76771 75.2827 7.92082 76.4952 8.67724 78.5287C9.30151 80.2322 9.67249 81.5625 9.92157 83.0518C10.0995 84.1049 10.1818 84.8175 10.5207 88.2101C10.7077 90.071 10.8251 91.1241 11.1065 93.6871C11.3175 95.6333 11.5048 100.62 11.4143 102.118C11.3631 102.841 11.3858 103.255 11.4704 103.33C11.7363 103.565 11.848 102.885 11.9804 99.9521C12.1516 96.3491 12.4568 92.5977 12.6929 91.0894C12.7923 90.473 12.9306 89.166 12.995 88.1671C13.1227 86.4775 13.3138 84.0439 13.4401 82.6944C13.4777 82.3757 13.4555 81.844 13.396 81.5249Z" fill="#3E7E2D"/>
<g filter="url(#filter0_d_1_1452)">
<path d="M59.275 113.934C59.782 114.341 59.841 115.091 59.4039 115.573L57.7712 117.371C56.7367 118.51 56.5922 120.201 57.4183 121.499L59.9037 125.405C60.8 126.814 59.8618 128.668 58.1959 128.781C57.3161 128.84 56.4859 128.368 56.0867 127.582L53.8735 123.223C53.6288 122.741 52.9864 122.636 52.6008 123.014C52.4644 123.148 52.3805 123.327 52.3642 123.517L52.03 127.431C51.9706 128.128 51.4198 128.682 50.7234 128.745C49.9175 128.818 49.209 128.214 49.1539 127.407L48.0674 111.491C47.9734 110.115 48.9425 108.894 50.3036 108.673C52.0174 108.395 53.5366 109.801 53.3921 111.531L53.2378 113.378C53.0615 115.489 55.7245 116.552 57.0509 114.901L57.6885 114.107C58.0788 113.621 58.7891 113.544 59.275 113.934ZM72.4855 119.092C71.2536 119.092 70.3187 119.543 69.6805 120.446C69.0647 121.348 68.6026 123.002 68.2947 125.408L68.0668 127.434C67.9881 128.134 67.4286 128.681 66.7277 128.745C65.9152 128.819 65.1958 128.222 65.1178 127.41L64.1368 117.192C64.007 115.841 64.9487 114.62 66.2893 114.402L67.2344 114.249C68.4575 114.051 69.5288 115.082 69.377 116.312L69.135 118.273C69.1268 118.339 69.1786 118.398 69.2455 118.398C69.2895 118.398 69.3295 118.372 69.3476 118.331C70.0828 116.696 70.9159 115.45 71.8471 114.592C73.1133 113.425 74.6247 114.813 74.4101 116.521L74.2679 117.652C74.1588 118.52 73.3605 119.092 72.4855 119.092ZM79.5354 128.745C78.7207 128.819 77.9993 128.221 77.9211 127.406L76.9422 117.214C76.8114 115.852 77.7646 114.624 79.1165 114.413C80.8079 114.149 82.2844 115.572 82.0828 117.272L80.8772 127.439C80.7945 128.137 80.2349 128.681 79.5354 128.745ZM77.5342 111.666C77.0502 111.134 76.8084 110.509 76.8084 109.791C76.8084 109.051 77.0502 108.427 77.5342 107.918C78.0403 107.409 78.6343 107.154 79.3165 107.154C79.9983 107.154 80.5814 107.409 81.0653 107.918C81.571 108.427 81.8241 109.051 81.8241 109.791C81.8241 110.509 81.571 111.134 81.0653 111.666C80.5814 112.175 79.9983 112.429 79.3165 112.429C78.6343 112.429 78.0403 112.175 77.5342 111.666ZM85.9492 119.092C85.9492 117.171 86.7126 115.381 88.2391 113.72C88.9917 112.902 90.2412 112.879 91.1462 113.525C92.5425 114.522 92.3749 116.563 91.5251 118.053C91.1957 118.631 91.0309 119.22 91.0309 119.821C91.0309 120.608 91.4379 121.626 92.2519 122.875C93.0877 124.124 93.5056 125.096 93.5056 125.79C93.5056 128.054 92.1447 129.853 89.4225 131.188C88.9624 131.414 88.4126 131.251 88.1191 130.831C87.7517 130.305 87.9287 129.589 88.4276 129.186C89.1952 128.565 89.5791 127.908 89.5791 127.213C89.5791 126.241 88.9738 125.05 87.7641 123.638C87.302 123.106 86.8841 122.435 86.5101 121.626C86.1362 120.793 85.9492 119.948 85.9492 119.092ZM108.322 113.575C108.989 113.575 109.552 114.047 109.861 114.638C110.489 115.839 110.933 117.578 111.193 119.856C111.437 121.995 111.591 124.122 111.654 126.236C111.692 127.495 110.724 128.545 109.47 128.653C108.054 128.774 106.839 127.657 106.819 126.236C106.806 125.316 106.787 124.416 106.76 123.535C106.661 120.258 103.772 119.093 102.825 122.232C102.387 123.685 102.026 125.427 101.742 127.458C101.647 128.143 101.098 128.68 100.409 128.743C99.5909 128.817 98.8716 128.204 98.8157 127.385L97.73 111.485C97.6362 110.113 98.603 108.895 99.9609 108.674C101.675 108.396 103.192 109.806 103.041 111.536L102.33 119.659C102.323 119.746 102.391 119.821 102.479 119.821C102.54 119.821 102.595 119.783 102.618 119.727C103.357 117.873 104.214 116.39 105.187 115.275C106.177 114.141 107.222 113.575 108.322 113.575ZM118.342 128.745C117.527 128.819 116.806 128.221 116.727 127.406L115.749 117.214C115.618 115.852 116.571 114.624 117.923 114.413C119.614 114.149 121.091 115.572 120.889 117.271L119.684 127.439C119.601 128.137 119.041 128.681 118.342 128.745ZM116.341 111.666C115.857 111.134 115.615 110.509 115.615 109.791C115.615 109.051 115.857 108.427 116.341 107.918C116.847 107.409 117.441 107.154 118.123 107.154C118.805 107.154 119.388 107.409 119.872 107.918C120.378 108.427 120.631 109.051 120.631 109.791C120.631 110.509 120.378 111.134 119.872 111.666C119.388 112.175 118.805 112.429 118.123 112.429C117.441 112.429 116.847 112.175 116.341 111.666ZM135.959 128.745C135.153 128.818 134.445 128.214 134.39 127.407L133.303 111.488C133.209 110.114 134.177 108.894 135.537 108.674C137.251 108.396 138.769 109.803 138.621 111.533L137.266 127.431C137.206 128.128 136.656 128.682 135.959 128.745ZM145.5 128.745C144.685 128.819 143.964 128.221 143.885 127.406L142.907 117.214C142.776 115.852 143.729 114.624 145.081 114.413C146.772 114.149 148.249 115.572 148.047 117.271L146.841 127.439C146.759 128.137 146.199 128.681 145.5 128.745ZM143.499 111.666C143.015 111.134 142.773 110.509 142.773 109.791C142.773 109.051 143.015 108.427 143.499 107.918C144.005 107.409 144.599 107.154 145.281 107.154C145.963 107.154 146.546 107.409 147.03 107.918C147.536 108.427 147.789 109.051 147.789 109.791C147.789 110.509 147.536 111.134 147.03 111.666C146.546 112.175 145.963 112.429 145.281 112.429C144.599 112.429 144.005 112.175 143.499 111.666ZM162.803 113.575C163.491 113.575 164.074 114.055 164.39 114.666C165.01 115.867 165.449 117.597 165.707 119.856C165.951 121.995 166.105 124.122 166.169 126.236C166.206 127.495 165.239 128.545 163.984 128.653C162.568 128.774 161.353 127.657 161.332 126.236C161.318 125.31 161.296 124.403 161.267 123.516C161.161 120.239 158.262 119.08 157.322 122.221C156.888 123.671 156.532 125.41 156.255 127.438C156.16 128.134 155.603 128.681 154.902 128.745C154.089 128.819 153.368 128.221 153.29 127.408L152.309 117.19C152.179 115.839 153.12 114.62 154.459 114.403L155.164 114.289C156.507 114.07 157.683 115.205 157.514 116.556L157.247 118.683C157.236 118.771 157.305 118.849 157.394 118.849C157.452 118.849 157.505 118.815 157.529 118.761C158.246 117.161 159.046 115.906 159.932 114.997C160.856 114.049 161.813 113.575 162.803 113.575ZM181.403 113.934C181.91 114.341 181.969 115.091 181.532 115.573L179.899 117.371C178.865 118.51 178.72 120.201 179.547 121.499L182.032 125.405C182.928 126.814 181.99 128.668 180.324 128.781C179.445 128.84 178.614 128.368 178.215 127.582L176.002 123.223C175.757 122.741 175.115 122.636 174.729 123.014C174.593 123.148 174.509 123.327 174.492 123.517L174.159 127.431C174.099 128.128 173.548 128.682 172.852 128.745C172.046 128.818 171.337 128.214 171.282 127.407L170.196 111.491C170.102 110.115 171.071 108.894 172.432 108.673C174.146 108.395 175.665 109.801 175.52 111.531L175.366 113.378C175.19 115.489 177.853 116.552 179.179 114.901L179.817 114.107C180.207 113.621 180.917 113.544 181.403 113.934Z" fill="#145E00"/>
</g>
<defs>
<filter id="filter0_d_1_1452" x="44.0611" y="107.154" width="142.318" height="32.1355" filterUnits="userSpaceOnUse" color-interpolation-filters="sRGB">
<feFlood flood-opacity="0" result="BackgroundImageFix"/>
<feColorMatrix in="SourceAlpha" type="matrix" values="0 0 0 0 0 0 0 0 0 0 0 0 0 0 0 0 0 0 127 0" result="hardAlpha"/>
<feOffset dy="4"/>
<feGaussianBlur stdDeviation="2"/>
<feComposite in2="hardAlpha" operator="out"/>
<feColorMatrix type="matrix" values="0 0 0 0 0 0 0 0 0 0 0 0 0 0 0 0 0 0 0.25 0"/>
<feBlend mode="normal" in2="BackgroundImageFix" result="effect1_dropShadow_1_1452"/>
<feBlend mode="normal" in="SourceGraphic" in2="effect1_dropShadow_1_1452" result="shape"/>
</filter>
</defs>
</svg>
